<svg width="32" height="30" viewBox="0 0 32 30" fill="none" xmlns="http://www.w3.org/2000/svg">
<path d="M31.397 16.9554H30.2901V14.1663C30.2901 13.1026 29.5491 12.2135 28.5539 11.9577C28.284 5.32071 22.7594 0 15.9874 0C9.2129 0 3.68644 5.32493 3.42084 11.9661C2.43914 12.2314 1.71095 13.1128 1.71095 14.1666V16.9558H0.603384C0.26987 16.9554 0 17.2225 0 17.5525C0 17.8825 0.26987 18.1496 0.603384 18.1496H1.71095V20.9387C1.71095 22.2008 2.74954 23.2286 4.02529 23.2286C5.30104 23.2286 6.33927 22.2008 6.33927 20.9387V14.1663C6.33927 13.1118 5.61073 12.2293 4.62761 11.9651C4.8925 5.9836 9.87887 1.19419 15.987 1.19419C22.0987 1.19419 27.0865 5.98782 27.3475 11.9732C26.3775 12.2462 25.6611 13.1209 25.6611 14.1663V20.9387C25.6611 21.9932 26.3896 22.875 27.3727 23.1392V25.1705C27.3727 26.2239 26.0821 27.1127 24.5542 27.1127H21.6458C21.378 26.1409 20.4873 25.4203 19.4221 25.4203C18.1456 25.4203 17.1077 26.448 17.1077 27.7101C17.1077 28.9722 18.1456 30 19.4221 30C20.4873 30 21.3784 29.279 21.6458 28.3076H24.5542C26.7736 28.3076 28.5795 26.9009 28.5795 25.1712V23.1399C29.5616 22.875 30.2898 21.9939 30.2898 20.9394V18.1503H31.3966C31.7301 18.1503 32 17.8833 32 17.5532C32 17.2232 31.7305 16.9554 31.397 16.9554ZM5.13215 14.1663V20.9387C5.13215 21.5429 4.63578 22.0341 4.02529 22.0341C3.41479 22.0341 2.91772 21.5429 2.91772 20.9387V14.1663C2.91772 13.5622 3.41444 13.071 4.02529 13.071C4.63614 13.071 5.13215 13.5622 5.13215 14.1663ZM19.4221 28.8055C18.8116 28.8055 18.3152 28.3143 18.3152 27.7101C18.3152 27.106 18.8116 26.6148 19.4221 26.6148C20.0326 26.6148 20.5289 27.106 20.5289 27.7101C20.5289 28.3143 20.0326 28.8055 19.4221 28.8055ZM29.083 20.9387C29.083 21.5429 28.5866 22.0341 27.9761 22.0341C27.3656 22.0341 26.8682 21.5429 26.8682 20.9387V14.1663C26.8682 13.5622 27.3656 13.071 27.9761 13.071C28.5866 13.071 29.083 13.5622 29.083 14.1663V20.9387Z" fill="#C9252C"/>
<path d="M10.3359 8.50945V11H9.82448V8.50945H10.3359ZM11.1023 8.50945V8.91143H9.07013V8.50945H11.1023ZM10.9876 10.0934V10.0575C10.9876 9.92179 11.007 9.79692 11.0458 9.68288C11.0846 9.56771 11.141 9.46792 11.2152 9.38354C11.2893 9.29915 11.3805 9.23358 11.4888 9.18683C11.5972 9.13893 11.7215 9.11498 11.8617 9.11498C12.002 9.11498 12.1269 9.13893 12.2363 9.18683C12.3458 9.23358 12.4376 9.29915 12.5117 9.38354C12.587 9.46792 12.644 9.56771 12.6828 9.68288C12.7216 9.79692 12.741 9.92179 12.741 10.0575V10.0934C12.741 10.228 12.7216 10.3528 12.6828 10.468C12.644 10.5821 12.587 10.6818 12.5117 10.7674C12.4376 10.8518 12.3464 10.9173 12.2381 10.9641C12.1297 11.0108 12.0054 11.0342 11.8652 11.0342C11.7249 11.0342 11.6 11.0108 11.4905 10.9641C11.3822 10.9173 11.2904 10.8518 11.2152 10.7674C11.141 10.6818 11.0846 10.5821 11.0458 10.468C11.007 10.3528 10.9876 10.228 10.9876 10.0934ZM11.4803 10.0575V10.0934C11.4803 10.171 11.4871 10.2434 11.5008 10.3107C11.5145 10.3779 11.5362 10.4372 11.5658 10.4885C11.5966 10.5387 11.6365 10.5781 11.6856 10.6066C11.7346 10.6351 11.7945 10.6493 11.8652 10.6493C11.9336 10.6493 11.9923 10.6351 12.0413 10.6066C12.0904 10.5781 12.1297 10.5387 12.1594 10.4885C12.189 10.4372 12.2107 10.3779 12.2244 10.3107C12.2392 10.2434 12.2466 10.171 12.2466 10.0934V10.0575C12.2466 9.98223 12.2392 9.91153 12.2244 9.84538C12.2107 9.7781 12.1884 9.7188 12.1577 9.66749C12.128 9.61503 12.0887 9.57398 12.0396 9.54433C11.9906 9.51468 11.9313 9.49986 11.8617 9.49986C11.7922 9.49986 11.7329 9.51468 11.6838 9.54433C11.6359 9.57398 11.5966 9.61503 11.5658 9.66749C11.5362 9.7188 11.5145 9.7781 11.5008 9.84538C11.4871 9.91153 11.4803 9.98223 11.4803 10.0575ZM13.5637 8.37261V11H13.0694V8.37261H13.5637ZM14.4908 8.37261V11H13.9965V8.37261H14.4908ZM16.3143 8.50945V11H15.8011V8.50945H16.3143ZM17.3064 9.57341V9.97368H16.174V9.57341H17.3064ZM17.4261 8.50945V8.91143H16.174V8.50945H17.4261ZM18.1411 9.55288V11H17.6485V9.14919H18.1121L18.1411 9.55288ZM18.6988 9.13722L18.6902 9.59393C18.6663 9.59051 18.6372 9.58766 18.603 9.58538C18.5699 9.58196 18.5397 9.58025 18.5123 9.58025C18.4428 9.58025 18.3823 9.58937 18.331 9.60762C18.2808 9.62472 18.2386 9.65038 18.2044 9.68459C18.1714 9.7188 18.1463 9.76043 18.1292 9.80946C18.1132 9.8585 18.1041 9.91438 18.1018 9.9771L18.0026 9.94631C18.0026 9.82657 18.0146 9.71652 18.0385 9.61617C18.0624 9.51468 18.0972 9.4263 18.1428 9.35104C18.1896 9.27577 18.2466 9.21762 18.3139 9.17656C18.3812 9.13551 18.4582 9.11498 18.5448 9.11498C18.5722 9.11498 18.6001 9.11726 18.6286 9.12183C18.6571 9.12525 18.6805 9.13038 18.6988 9.13722ZM19.749 11.0342C19.6054 11.0342 19.4765 11.0114 19.3625 10.9658C19.2484 10.919 19.1515 10.8546 19.0717 10.7725C18.993 10.6904 18.9325 10.5952 18.8904 10.4868C18.8482 10.3774 18.8271 10.261 18.8271 10.1379V10.0695C18.8271 9.9292 18.847 9.80091 18.8869 9.68459C18.9268 9.56828 18.9839 9.46735 19.058 9.38183C19.1332 9.2963 19.2245 9.23073 19.3317 9.18512C19.4389 9.13836 19.5597 9.11498 19.6943 9.11498C19.8254 9.11498 19.9418 9.13665 20.0433 9.17998C20.1447 9.22332 20.2297 9.2849 20.2981 9.36472C20.3677 9.44455 20.4201 9.54034 20.4555 9.65209C20.4908 9.76271 20.5085 9.88587 20.5085 10.0216V10.2268H19.0375V9.89841H20.0244V9.86078C20.0244 9.79236 20.0119 9.73135 19.9868 9.67775C19.9629 9.62301 19.9264 9.57968 19.8773 9.54775C19.8283 9.51582 19.7656 9.49986 19.6892 9.49986C19.6242 9.49986 19.5683 9.51411 19.5215 9.54262C19.4748 9.57113 19.4366 9.61104 19.4069 9.66236C19.3784 9.71367 19.3568 9.77411 19.3419 9.84367C19.3283 9.9121 19.3214 9.98736 19.3214 10.0695V10.1379C19.3214 10.212 19.3317 10.2804 19.3522 10.3432C19.3739 10.4059 19.4041 10.46 19.4429 10.5057C19.4828 10.5513 19.5307 10.5866 19.5865 10.6117C19.6436 10.6368 19.708 10.6493 19.7798 10.6493C19.8688 10.6493 19.9515 10.6322 20.0279 10.598C20.1054 10.5627 20.1721 10.5096 20.228 10.4389L20.4675 10.6989C20.4287 10.7548 20.3757 10.8084 20.3084 10.8597C20.2422 10.9111 20.1624 10.9532 20.0689 10.9863C19.9754 11.0182 19.8688 11.0342 19.749 11.0342ZM21.6409 11.0342C21.4972 11.0342 21.3684 11.0114 21.2543 10.9658C21.1403 10.919 21.0434 10.8546 20.9635 10.7725C20.8848 10.6904 20.8244 10.5952 20.7822 10.4868C20.74 10.3774 20.7189 10.261 20.7189 10.1379V10.0695C20.7189 9.9292 20.7389 9.80091 20.7788 9.68459C20.8187 9.56828 20.8757 9.46735 20.9498 9.38183C21.0251 9.2963 21.1163 9.23073 21.2235 9.18512C21.3307 9.13836 21.4516 9.11498 21.5862 9.11498C21.7173 9.11498 21.8336 9.13665 21.9351 9.17998C22.0366 9.22332 22.1216 9.2849 22.19 9.36472C22.2595 9.44455 22.312 9.54034 22.3474 9.65209C22.3827 9.76271 22.4004 9.88587 22.4004 10.0216V10.2268H20.9293V9.89841H21.9163V9.86078C21.9163 9.79236 21.9038 9.73135 21.8787 9.67775C21.8547 9.62301 21.8182 9.57968 21.7692 9.54775C21.7202 9.51582 21.6574 9.49986 21.581 9.49986C21.516 9.49986 21.4602 9.51411 21.4134 9.54262C21.3666 9.57113 21.3284 9.61104 21.2988 9.66236C21.2703 9.71367 21.2486 9.77411 21.2338 9.84367C21.2201 9.9121 21.2133 9.98736 21.2133 10.0695V10.1379C21.2133 10.212 21.2235 10.2804 21.2441 10.3432C21.2657 10.4059 21.2959 10.46 21.3347 10.5057C21.3746 10.5513 21.4225 10.5866 21.4784 10.6117C21.5354 10.6368 21.5998 10.6493 21.6717 10.6493C21.7606 10.6493 21.8433 10.6322 21.9197 10.598C21.9973 10.5627 22.064 10.5096 22.1199 10.4389L22.3593 10.6989C22.3206 10.7548 22.2675 10.8084 22.2002 10.8597C22.1341 10.9111 22.0543 10.9532 21.9608 10.9863C21.8673 11.0182 21.7606 11.0342 21.6409 11.0342ZM10.8936 14.5997V15H9.5679V14.5997H10.8936ZM9.73553 12.5095V15H9.22237V12.5095H9.73553ZM10.7208 13.5238V13.9138H9.5679V13.5238H10.7208ZM10.8919 12.5095V12.9114H9.5679V12.5095H10.8919ZM11.6445 13.5443V15H11.1519V13.1492H11.6137L11.6445 13.5443ZM11.5727 14.0096H11.4392C11.4392 13.8728 11.4569 13.7496 11.4923 13.6401C11.5276 13.5295 11.5772 13.4354 11.6411 13.3579C11.7049 13.2792 11.7808 13.2193 11.8686 13.1783C11.9575 13.1361 12.0567 13.115 12.1662 13.115C12.2529 13.115 12.3321 13.1275 12.404 13.1526C12.4758 13.1777 12.5374 13.2176 12.5887 13.2724C12.6412 13.3271 12.6811 13.3995 12.7085 13.4896C12.737 13.5797 12.7512 13.6897 12.7512 13.8197V15H12.2552V13.818C12.2552 13.7359 12.2438 13.672 12.2209 13.6264C12.1981 13.5808 12.1645 13.5489 12.12 13.5306C12.0767 13.5113 12.0231 13.5016 11.9592 13.5016C11.8931 13.5016 11.8355 13.5147 11.7865 13.5409C11.7386 13.5671 11.6987 13.6036 11.6667 13.6504C11.6359 13.696 11.6126 13.7496 11.5966 13.8112C11.5806 13.8728 11.5727 13.9389 11.5727 14.0096ZM14.2189 15.7116V13.5272L14.2822 13.1492H14.7149V15.7116H14.2189ZM13.0489 14.0934V14.0575C13.0489 13.9161 13.0642 13.7878 13.095 13.6726C13.127 13.5563 13.1737 13.4571 13.2353 13.375C13.2969 13.2917 13.3721 13.2279 13.4611 13.1834C13.5512 13.1378 13.655 13.115 13.7724 13.115C13.8853 13.115 13.9828 13.1378 14.0649 13.1834C14.147 13.229 14.216 13.2934 14.2719 13.3767C14.3289 13.4599 14.3745 13.558 14.4087 13.6709C14.4429 13.7838 14.4692 13.9075 14.4874 14.0421V14.1208C14.4703 14.2496 14.4441 14.3694 14.4087 14.48C14.3745 14.5906 14.3289 14.6875 14.2719 14.7708C14.216 14.854 14.1464 14.919 14.0632 14.9658C13.9811 15.0114 13.883 15.0342 13.769 15.0342C13.6538 15.0342 13.5512 15.0108 13.4611 14.9641C13.3721 14.9162 13.2969 14.85 13.2353 14.7657C13.1737 14.6813 13.127 14.5821 13.095 14.468C13.0642 14.3528 13.0489 14.228 13.0489 14.0934ZM13.5415 14.0575V14.0934C13.5415 14.1698 13.5478 14.2417 13.5603 14.3089C13.5728 14.3751 13.5928 14.4338 13.6202 14.4851C13.6487 14.5364 13.6852 14.5769 13.7296 14.6066C13.7741 14.6351 13.8289 14.6493 13.8939 14.6493C13.9839 14.6493 14.0564 14.63 14.1111 14.5912C14.167 14.5513 14.208 14.4971 14.2343 14.4287C14.2616 14.3603 14.2776 14.2821 14.2822 14.1943V13.9703C14.2787 13.8984 14.269 13.834 14.2531 13.777C14.2382 13.7188 14.2154 13.6692 14.1847 13.6281C14.155 13.5871 14.1162 13.5557 14.0683 13.5341C14.0216 13.5113 13.9646 13.4999 13.8973 13.4999C13.8334 13.4999 13.7787 13.5141 13.7331 13.5426C13.6875 13.5711 13.6504 13.611 13.6219 13.6624C13.5945 13.7125 13.574 13.7713 13.5603 13.8385C13.5478 13.9058 13.5415 13.9788 13.5415 14.0575ZM16.198 14.557V13.1492H16.6906V15H16.227L16.198 14.557ZM16.2527 14.1772L16.3981 14.1738C16.3981 14.297 16.3838 14.4116 16.3553 14.5176C16.3268 14.6225 16.2841 14.7138 16.227 14.7913C16.17 14.8677 16.0982 14.9276 16.0115 14.9709C15.9248 15.0131 15.8228 15.0342 15.7053 15.0342C15.6152 15.0342 15.532 15.0217 15.4556 14.9966C15.3803 14.9704 15.3153 14.9299 15.2606 14.8751C15.207 14.8193 15.1648 14.748 15.134 14.6613C15.1044 14.5735 15.0895 14.468 15.0895 14.3449V13.1492H15.5822V14.3483C15.5822 14.403 15.5884 14.4492 15.601 14.4868C15.6147 14.5245 15.6335 14.5553 15.6574 14.5792C15.6814 14.6032 15.7093 14.6203 15.7412 14.6305C15.7743 14.6408 15.8108 14.6459 15.8507 14.6459C15.9522 14.6459 16.032 14.6254 16.0902 14.5843C16.1495 14.5433 16.1911 14.4874 16.2151 14.4167C16.2402 14.3449 16.2527 14.265 16.2527 14.1772ZM17.5869 13.1492V15H17.0926V13.1492H17.5869ZM17.0618 12.6668C17.0618 12.595 17.0869 12.5357 17.137 12.4889C17.1872 12.4422 17.2545 12.4188 17.3389 12.4188C17.4221 12.4188 17.4888 12.4422 17.539 12.4889C17.5903 12.5357 17.616 12.595 17.616 12.6668C17.616 12.7387 17.5903 12.798 17.539 12.8447C17.4888 12.8915 17.4221 12.9148 17.3389 12.9148C17.2545 12.9148 17.1872 12.8915 17.137 12.8447C17.0869 12.798 17.0618 12.7387 17.0618 12.6668ZM18.4867 13.5529V15H17.994V13.1492H18.4576L18.4867 13.5529ZM19.0443 13.1372L19.0357 13.5939C19.0118 13.5905 18.9827 13.5877 18.9485 13.5854C18.9154 13.582 18.8852 13.5803 18.8579 13.5803C18.7883 13.5803 18.7278 13.5894 18.6765 13.6076C18.6264 13.6247 18.5842 13.6504 18.55 13.6846C18.5169 13.7188 18.4918 13.7604 18.4747 13.8095C18.4587 13.8585 18.4496 13.9144 18.4473 13.9771L18.3481 13.9463C18.3481 13.8266 18.3601 13.7165 18.384 13.6162C18.408 13.5147 18.4428 13.4263 18.4884 13.351C18.5351 13.2758 18.5921 13.2176 18.6594 13.1766C18.7267 13.1355 18.8037 13.115 18.8904 13.115C18.9177 13.115 18.9457 13.1173 18.9742 13.1218C19.0027 13.1252 19.0261 13.1304 19.0443 13.1372ZM19.8568 14.7913L20.3477 13.1492H20.8763L20.1322 15.2788C20.1162 15.3256 20.0946 15.3757 20.0672 15.4293C20.041 15.4829 20.0051 15.5337 19.9594 15.5816C19.915 15.6306 19.8585 15.6705 19.7901 15.7013C19.7228 15.7321 19.6401 15.7475 19.5421 15.7475C19.4953 15.7475 19.4571 15.7447 19.4275 15.739C19.3978 15.7333 19.3625 15.7253 19.3214 15.715V15.3541C19.334 15.3541 19.3471 15.3541 19.3607 15.3541C19.3744 15.3552 19.3875 15.3558 19.4001 15.3558C19.4651 15.3558 19.5181 15.3484 19.5592 15.3336C19.6002 15.3187 19.6333 15.2959 19.6584 15.2651C19.6835 15.2355 19.7034 15.1967 19.7183 15.1488L19.8568 14.7913ZM19.6515 13.1492L20.0535 14.4903L20.1237 15.012L19.7884 15.0479L19.123 13.1492H19.6515ZM10.8833 17.5238V17.9241H9.58329V17.5238H10.8833ZM9.73553 16.5095V19H9.22237V16.5095H9.73553ZM11.2494 16.5095V19H10.7379V16.5095H11.2494ZM12.5169 19.0342C12.3732 19.0342 12.2443 19.0114 12.1303 18.9658C12.0163 18.919 11.9193 18.8546 11.8395 18.7725C11.7608 18.6904 11.7004 18.5952 11.6582 18.4868C11.616 18.3774 11.5949 18.261 11.5949 18.1379V18.0695C11.5949 17.9292 11.6148 17.8009 11.6548 17.6846C11.6947 17.5683 11.7517 17.4674 11.8258 17.3818C11.9011 17.2963 11.9923 17.2307 12.0995 17.1851C12.2067 17.1384 12.3276 17.115 12.4621 17.115C12.5933 17.115 12.7096 17.1367 12.8111 17.18C12.9126 17.2233 12.9975 17.2849 13.066 17.3647C13.1355 17.4445 13.188 17.5403 13.2233 17.6521C13.2587 17.7627 13.2764 17.8859 13.2764 18.0216V18.2268H11.8053V17.8984H12.7923V17.8608C12.7923 17.7924 12.7797 17.7313 12.7546 17.6778C12.7307 17.623 12.6942 17.5797 12.6452 17.5478C12.5961 17.5158 12.5334 17.4999 12.457 17.4999C12.392 17.4999 12.3361 17.5141 12.2894 17.5426C12.2426 17.5711 12.2044 17.611 12.1748 17.6624C12.1463 17.7137 12.1246 17.7741 12.1098 17.8437C12.0961 17.9121 12.0892 17.9874 12.0892 18.0695V18.1379C12.0892 18.212 12.0995 18.2804 12.12 18.3432C12.1417 18.4059 12.1719 18.46 12.2107 18.5057C12.2506 18.5513 12.2985 18.5866 12.3544 18.6117C12.4114 18.6368 12.4758 18.6493 12.5477 18.6493C12.6366 18.6493 12.7193 18.6322 12.7957 18.598C12.8732 18.5627 12.9399 18.5096 12.9958 18.4389L13.2353 18.6989C13.1965 18.7548 13.1435 18.8084 13.0762 18.8597C13.0101 18.9111 12.9303 18.9532 12.8367 18.9863C12.7432 19.0182 12.6366 19.0342 12.5169 19.0342ZM14.0769 16.3726V19H13.5825V16.3726H14.0769ZM14.9766 17.505V19.7116H14.484V17.1492H14.9407L14.9766 17.505ZM16.1484 18.0541V18.09C16.1484 18.2246 16.1324 18.3494 16.1005 18.4646C16.0697 18.5798 16.0241 18.6801 15.9636 18.7657C15.9032 18.85 15.8279 18.9162 15.7378 18.9641C15.6489 19.0108 15.5462 19.0342 15.4299 19.0342C15.317 19.0342 15.219 19.0114 15.1357 18.9658C15.0525 18.9202 14.9823 18.8563 14.9253 18.7742C14.8694 18.691 14.8244 18.5946 14.7902 18.4851C14.756 18.3757 14.7297 18.2582 14.7115 18.1328V18.0387C14.7297 17.9041 14.756 17.781 14.7902 17.6692C14.8244 17.5563 14.8694 17.4588 14.9253 17.3767C14.9823 17.2934 15.0519 17.229 15.134 17.1834C15.2172 17.1378 15.3147 17.115 15.4265 17.115C15.544 17.115 15.6472 17.1372 15.7361 17.1817C15.8262 17.2262 15.9015 17.29 15.9619 17.3733C16.0235 17.4565 16.0697 17.5557 16.1005 17.6709C16.1324 17.7861 16.1484 17.9138 16.1484 18.0541ZM15.654 18.09V18.0541C15.654 17.9754 15.6472 17.903 15.6335 17.8368C15.6209 17.7696 15.6004 17.7108 15.5719 17.6606C15.5445 17.6105 15.508 17.5717 15.4624 17.5443C15.418 17.5158 15.3638 17.5016 15.2999 17.5016C15.2326 17.5016 15.1751 17.5124 15.1272 17.5341C15.0804 17.5557 15.0422 17.5871 15.0126 17.6281C14.9829 17.6692 14.9607 17.7182 14.9458 17.7753C14.931 17.8323 14.9219 17.8967 14.9185 17.9685V18.2063C14.9242 18.2907 14.9401 18.3665 14.9664 18.4338C14.9926 18.5 15.0331 18.5524 15.0878 18.5912C15.1426 18.63 15.2144 18.6493 15.3033 18.6493C15.3683 18.6493 15.4231 18.6351 15.4676 18.6066C15.512 18.5769 15.548 18.5364 15.5753 18.4851C15.6038 18.4338 15.6238 18.3745 15.6352 18.3072C15.6477 18.2399 15.654 18.1675 15.654 18.09ZM16.9745 16.3726V19H16.4802V16.3726H16.9745ZM17.9017 17.1492V19H17.4073V17.1492H17.9017ZM17.3765 16.6668C17.3765 16.595 17.4016 16.5357 17.4518 16.4889C17.502 16.4422 17.5692 16.4188 17.6536 16.4188C17.7369 16.4188 17.8036 16.4422 17.8538 16.4889C17.9051 16.5357 17.9307 16.595 17.9307 16.6668C17.9307 16.7387 17.9051 16.798 17.8538 16.8447C17.8036 16.8915 17.7369 16.9148 17.6536 16.9148C17.5692 16.9148 17.502 16.8915 17.4518 16.8447C17.4016 16.798 17.3765 16.7387 17.3765 16.6668ZM18.7911 17.5443V19H18.2985V17.1492H18.7604L18.7911 17.5443ZM18.7193 18.0096H18.5859C18.5859 17.8728 18.6036 17.7496 18.6389 17.6401C18.6743 17.5295 18.7239 17.4354 18.7877 17.3579C18.8516 17.2792 18.9274 17.2193 19.0152 17.1783C19.1042 17.1361 19.2034 17.115 19.3129 17.115C19.3995 17.115 19.4788 17.1275 19.5506 17.1526C19.6225 17.1777 19.684 17.2176 19.7354 17.2724C19.7878 17.3271 19.8277 17.3995 19.8551 17.4896C19.8836 17.5797 19.8979 17.6897 19.8979 17.8197V19H19.4018V17.818C19.4018 17.7359 19.3904 17.672 19.3676 17.6264C19.3448 17.5808 19.3111 17.5489 19.2667 17.5306C19.2233 17.5113 19.1697 17.5016 19.1059 17.5016C19.0397 17.5016 18.9822 17.5147 18.9331 17.5409C18.8852 17.5671 18.8453 17.6036 18.8134 17.6504C18.7826 17.696 18.7592 17.7496 18.7432 17.8112C18.7273 17.8728 18.7193 17.9389 18.7193 18.0096ZM21.1243 19.0342C20.9806 19.0342 20.8518 19.0114 20.7377 18.9658C20.6237 18.919 20.5268 18.8546 20.4469 18.7725C20.3683 18.6904 20.3078 18.5952 20.2656 18.4868C20.2234 18.3774 20.2023 18.261 20.2023 18.1379V18.0695C20.2023 17.9292 20.2223 17.8009 20.2622 17.6846C20.3021 17.5683 20.3591 17.4674 20.4333 17.3818C20.5085 17.2963 20.5998 17.2307 20.7069 17.1851C20.8141 17.1384 20.935 17.115 21.0696 17.115C21.2007 17.115 21.317 17.1367 21.4185 17.18C21.52 17.2233 21.605 17.2849 21.6734 17.3647C21.743 17.4445 21.7954 17.5403 21.8308 17.6521C21.8661 17.7627 21.8838 17.8859 21.8838 18.0216V18.2268H20.4127V17.8984H21.3997V17.8608C21.3997 17.7924 21.3872 17.7313 21.3621 17.6778C21.3381 17.623 21.3016 17.5797 21.2526 17.5478C21.2036 17.5158 21.1409 17.4999 21.0644 17.4999C20.9994 17.4999 20.9436 17.5141 20.8968 17.5426C20.8501 17.5711 20.8119 17.611 20.7822 17.6624C20.7537 17.7137 20.732 17.7741 20.7172 17.8437C20.7035 17.9121 20.6967 17.9874 20.6967 18.0695V18.1379C20.6967 18.212 20.7069 18.2804 20.7275 18.3432C20.7491 18.4059 20.7794 18.46 20.8181 18.5057C20.858 18.5513 20.9059 18.5866 20.9618 18.6117C21.0188 18.6368 21.0833 18.6493 21.1551 18.6493C21.2441 18.6493 21.3267 18.6322 21.4031 18.598C21.4807 18.5627 21.5474 18.5096 21.6033 18.4389L21.8427 18.6989C21.804 18.7548 21.7509 18.8084 21.6837 18.8597C21.6175 18.9111 21.5377 18.9532 21.4442 18.9863C21.3507 19.0182 21.2441 19.0342 21.1243 19.0342ZM22.1831 18.7622C22.1831 18.6893 22.2082 18.6282 22.2584 18.5792C22.3097 18.5302 22.3776 18.5057 22.462 18.5057C22.5463 18.5057 22.6136 18.5302 22.6638 18.5792C22.7151 18.6282 22.7408 18.6893 22.7408 18.7622C22.7408 18.8352 22.7151 18.8962 22.6638 18.9453C22.6136 18.9943 22.5463 19.0188 22.462 19.0188C22.3776 19.0188 22.3097 18.9943 22.2584 18.9453C22.2082 18.8962 22.1831 18.8352 22.1831 18.7622ZM22.1831 17.351C22.1831 17.2781 22.2082 17.217 22.2584 17.168C22.3097 17.119 22.3776 17.0945 22.462 17.0945C22.5463 17.0945 22.6136 17.119 22.6638 17.168C22.7151 17.217 22.7408 17.2781 22.7408 17.351C22.7408 17.424 22.7151 17.485 22.6638 17.5341C22.6136 17.5831 22.5463 17.6076 22.462 17.6076C22.3776 17.6076 22.3097 17.5831 22.2584 17.5341C22.2082 17.485 22.1831 17.424 22.1831 17.351Z" fill="#C9252C"/>
</svg>
