<svg width="24" height="16" viewBox="0 0 24 16" fill="none" xmlns="http://www.w3.org/2000/svg">
<path d="M1.67442 0C0.756474 0 0 0.756474 0 1.67442V13.3953C0 14.3133 0.756474 15.0698 1.67442 15.0698H22.3256C23.2435 15.0698 24 14.3133 24 13.3953V1.67442C24 0.756474 23.2435 0 22.3256 0H1.67442ZM1.99708 1.11628H22.0029L12.4884 9.59302C12.2496 9.80562 11.7504 9.80562 11.5116 9.59302L1.99708 1.11628ZM1.11628 1.8314L7.79651 7.78777L1.11628 13.2733V1.8314ZM22.8837 1.8314V13.2733L16.2035 7.78777L22.8837 1.8314ZM8.65116 8.53781L10.7704 10.4302C11.4684 11.0518 12.5316 11.0518 13.2296 10.4302L15.3488 8.53781L21.9419 13.9535H2.05814L8.65116 8.53781Z" fill="#E1A2C0"/>
</svg>
