<svg width="18" height="24" viewBox="0 0 18 24" fill="none" xmlns="http://www.w3.org/2000/svg">
<path d="M8.23957 22.5086C8.26757 22.5604 8.30906 22.6038 8.35967 22.634C8.41028 22.6641 8.4681 22.6801 8.52703 22.6801C8.58596 22.6801 8.64378 22.6641 8.69439 22.634C8.745 22.6038 8.78649 22.5604 8.81449 22.5086C9.2908 21.7808 9.82147 21.0902 10.402 20.4424C12.7355 17.6357 16.6412 12.938 16.6009 8.07109C16.5907 5.93025 15.7364 3.87987 14.2233 2.36525C13.4762 1.61554 12.5884 1.0207 11.611 0.614814C10.6335 0.208931 9.58545 0 8.52703 0C7.46861 0 6.42061 0.208931 5.44311 0.614814C4.46561 1.0207 3.57785 1.61554 2.83073 2.36525C1.31771 3.87987 0.463324 5.93025 0.453124 8.07109C0.412869 12.938 4.31861 17.6357 6.65209 20.4424C7.23259 21.0902 7.76326 21.7808 8.23957 22.5086ZM8.52703 0.653649C10.4911 0.667776 12.3707 1.45448 13.7594 2.84361C15.148 4.23275 15.9339 6.11266 15.9473 8.07677C15.9858 12.704 12.1758 17.2866 9.8993 20.0242C9.33161 20.7075 8.85062 21.2855 8.52703 21.7445C8.20344 21.2855 7.72297 20.7075 7.15476 20.0242C4.8783 17.2866 1.06959 12.704 1.10675 8.07677C1.12012 6.11266 1.90611 4.23275 3.29471 2.84361C4.68331 1.45448 6.56292 0.667776 8.52703 0.653649ZM12.5912 8.07393C12.5912 7.27011 12.3528 6.48435 11.9063 5.816C11.4597 5.14765 10.825 4.62673 10.0823 4.31912C9.33969 4.01151 8.52252 3.93103 7.73415 4.08785C6.94578 4.24466 6.22161 4.63174 5.65322 5.20013C5.08484 5.76851 4.69776 6.49268 4.54095 7.28105C4.38413 8.06942 4.46461 8.88659 4.77222 9.62923C5.07983 10.3719 5.60074 11.0066 6.26909 11.4532C6.93745 11.8998 7.72321 12.1381 8.52703 12.1381C9.60452 12.1368 10.6375 11.7082 11.3994 10.9463C12.1613 10.1844 12.5899 9.15142 12.5912 8.07393ZM5.11648 8.07393C5.11648 7.39939 5.3165 6.73999 5.69126 6.17913C6.06602 5.61827 6.59867 5.18113 7.22187 4.92299C7.84507 4.66486 8.53082 4.59731 9.1924 4.72891C9.85398 4.86051 10.4617 5.18533 10.9387 5.66231C11.4156 6.13928 11.7405 6.74698 11.8721 7.40857C12.0036 8.07015 11.9361 8.7559 11.678 9.3791C11.4198 10.0023 10.9827 10.5349 10.4218 10.9097C9.86097 11.2845 9.20157 11.4845 8.52703 11.4845C7.62281 11.4835 6.75592 11.1238 6.11654 10.4844C5.47715 9.84505 5.1175 8.97815 5.11648 8.07393ZM17.0541 21.9502C17.0541 22.6085 16.1834 23.1114 14.3926 23.4868C12.4589 23.8494 10.4943 24.0206 8.52703 23.998C6.5598 24.0206 4.59512 23.8494 2.66146 23.4868C0.870637 23.1111 0 22.6095 0 21.9502C0 21.4811 0.436351 21.0966 1.33434 20.7746C2.31206 20.4589 3.32013 20.2464 4.34209 20.1405C4.42686 20.1324 4.51144 20.1577 4.57784 20.2111C4.64424 20.2644 4.68722 20.3415 4.69764 20.426C4.70806 20.5105 4.6851 20.5957 4.63364 20.6636C4.58218 20.7314 4.50628 20.7765 4.42208 20.7893C3.44811 20.8892 2.48721 21.0905 1.55497 21.3897C0.815416 21.655 0.653623 21.8841 0.653623 21.9502C0.653623 22.0663 1.04714 22.4802 2.79538 22.8472C4.685 23.2005 6.6048 23.367 8.52703 23.3444C10.4492 23.367 12.3689 23.2005 14.2584 22.8472C16.0069 22.4802 16.4002 22.0663 16.4002 21.9502C16.4002 21.8841 16.2384 21.655 15.4988 21.3897C14.5666 21.0905 13.6057 20.8892 12.6317 20.7893C12.5882 20.7851 12.546 20.7723 12.5076 20.7515C12.4691 20.7308 12.4352 20.7025 12.4078 20.6685C12.3805 20.6344 12.3602 20.5952 12.3483 20.5532C12.3364 20.5111 12.333 20.4671 12.3383 20.4238C12.3437 20.3804 12.3576 20.3386 12.3794 20.3007C12.4012 20.2628 12.4304 20.2297 12.4652 20.2033C12.5 20.1769 12.5398 20.1578 12.5821 20.147C12.6244 20.1362 12.6685 20.134 12.7117 20.1405C13.7337 20.2464 14.7417 20.4589 15.7195 20.7746C16.6177 21.0966 17.0541 21.4811 17.0541 21.9502Z" fill="#E1A2C0"/>
</svg>
